<mxfile host="www.draw.io" modified="2020-04-17T08:23:12.874Z" agent="5.0 (Windows NT 10.0; Win64; x64) AppleWebKit/537.36 (KHTML, like Gecko) Chrome/81.0.4044.113 Safari/537.36" etag="Q16Y3QYsy5h-1Ye45way" version="12.9.14" type="github">
  <diagram id="S0DiUPjAgUc06-kpZNpV" name="Page-1">
    <mxGraphModel dx="1293" dy="636" grid="1" gridSize="10" guides="1" tooltips="1" connect="1" arrows="1" fold="1" page="1" pageScale="1" pageWidth="827" pageHeight="1169" math="0" shadow="0">
      <root>
        <mxCell id="0" />
        <mxCell id="1" parent="0" />
        <mxCell id="4Ke5hpOPJ7JmjohW-5ds-4" value="" style="edgeStyle=orthogonalEdgeStyle;rounded=0;orthogonalLoop=1;jettySize=auto;html=1;fontFamily=Times New Roman;fontSize=21;" parent="1" source="4Ke5hpOPJ7JmjohW-5ds-1" target="4Ke5hpOPJ7JmjohW-5ds-3" edge="1">
          <mxGeometry relative="1" as="geometry" />
        </mxCell>
        <mxCell id="4Ke5hpOPJ7JmjohW-5ds-1" value="多位置多模态&lt;br style=&quot;font-size: 21px;&quot;&gt;传感器数据" style="strokeWidth=2;html=1;shape=mxgraph.flowchart.terminator;whiteSpace=wrap;fontFamily=Times New Roman;fontSize=21;" parent="1" vertex="1">
          <mxGeometry x="111" y="160" width="140" height="60" as="geometry" />
        </mxCell>
        <mxCell id="4Ke5hpOPJ7JmjohW-5ds-6" value="" style="edgeStyle=orthogonalEdgeStyle;rounded=0;orthogonalLoop=1;jettySize=auto;html=1;fontFamily=Times New Roman;fontSize=21;" parent="1" source="4Ke5hpOPJ7JmjohW-5ds-3" target="4Ke5hpOPJ7JmjohW-5ds-5" edge="1">
          <mxGeometry relative="1" as="geometry" />
        </mxCell>
        <mxCell id="4Ke5hpOPJ7JmjohW-5ds-23" style="edgeStyle=orthogonalEdgeStyle;rounded=0;orthogonalLoop=1;jettySize=auto;html=1;entryX=0.5;entryY=0;entryDx=0;entryDy=0;fontFamily=Times New Roman;fontSize=21;" parent="1" edge="1">
          <mxGeometry relative="1" as="geometry">
            <mxPoint x="181" y="370" as="sourcePoint" />
            <mxPoint x="395" y="390" as="targetPoint" />
          </mxGeometry>
        </mxCell>
        <mxCell id="4Ke5hpOPJ7JmjohW-5ds-3" value="数据预处理" style="rounded=0;whiteSpace=wrap;html=1;fontFamily=Times New Roman;fontSize=21;" parent="1" vertex="1">
          <mxGeometry x="121" y="280" width="120" height="60" as="geometry" />
        </mxCell>
        <mxCell id="4Ke5hpOPJ7JmjohW-5ds-8" value="" style="edgeStyle=orthogonalEdgeStyle;rounded=0;orthogonalLoop=1;jettySize=auto;html=1;fontFamily=Times New Roman;fontSize=21;" parent="1" source="4Ke5hpOPJ7JmjohW-5ds-5" target="4Ke5hpOPJ7JmjohW-5ds-7" edge="1">
          <mxGeometry relative="1" as="geometry" />
        </mxCell>
        <mxCell id="4Ke5hpOPJ7JmjohW-5ds-5" value="滑动窗口分割" style="rounded=0;whiteSpace=wrap;html=1;fontFamily=Times New Roman;fontSize=21;" parent="1" vertex="1">
          <mxGeometry x="121" y="420" width="120" height="60" as="geometry" />
        </mxCell>
        <mxCell id="4Ke5hpOPJ7JmjohW-5ds-10" value="" style="edgeStyle=orthogonalEdgeStyle;rounded=0;orthogonalLoop=1;jettySize=auto;html=1;entryX=0.5;entryY=0;entryDx=0;entryDy=0;entryPerimeter=0;exitX=0.5;exitY=1;exitDx=0;exitDy=0;fontFamily=Times New Roman;fontSize=21;" parent="1" source="4Ke5hpOPJ7JmjohW-5ds-7" target="4Ke5hpOPJ7JmjohW-5ds-21" edge="1">
          <mxGeometry relative="1" as="geometry">
            <mxPoint x="180" y="700" as="targetPoint" />
            <Array as="points">
              <mxPoint x="180" y="720" />
              <mxPoint x="344" y="720" />
            </Array>
          </mxGeometry>
        </mxCell>
        <mxCell id="4Ke5hpOPJ7JmjohW-5ds-7" value="多尺度特征结合的混合网络模型行为识别" style="rounded=0;whiteSpace=wrap;html=1;fontFamily=Times New Roman;fontSize=21;" parent="1" vertex="1">
          <mxGeometry x="121" y="530" width="120" height="100" as="geometry" />
        </mxCell>
        <mxCell id="4Ke5hpOPJ7JmjohW-5ds-17" value="" style="edgeStyle=orthogonalEdgeStyle;rounded=0;orthogonalLoop=1;jettySize=auto;html=1;fontFamily=Times New Roman;fontSize=21;" parent="1" source="4Ke5hpOPJ7JmjohW-5ds-12" target="4Ke5hpOPJ7JmjohW-5ds-15" edge="1">
          <mxGeometry relative="1" as="geometry" />
        </mxCell>
        <mxCell id="4Ke5hpOPJ7JmjohW-5ds-12" value="动态分割" style="rounded=0;whiteSpace=wrap;html=1;fontFamily=Times New Roman;fontSize=21;" parent="1" vertex="1">
          <mxGeometry x="334" y="390" width="120" height="60" as="geometry" />
        </mxCell>
        <mxCell id="4Ke5hpOPJ7JmjohW-5ds-16" style="edgeStyle=orthogonalEdgeStyle;rounded=0;orthogonalLoop=1;jettySize=auto;html=1;entryX=1;entryY=0.5;entryDx=0;entryDy=0;exitX=1;exitY=0.5;exitDx=0;exitDy=0;fontFamily=Times New Roman;fontSize=21;" parent="1" source="4Ke5hpOPJ7JmjohW-5ds-15" target="4Ke5hpOPJ7JmjohW-5ds-12" edge="1">
          <mxGeometry relative="1" as="geometry" />
        </mxCell>
        <mxCell id="4Ke5hpOPJ7JmjohW-5ds-19" value="" style="edgeStyle=orthogonalEdgeStyle;rounded=0;orthogonalLoop=1;jettySize=auto;html=1;fontFamily=Times New Roman;fontSize=21;" parent="1" source="4Ke5hpOPJ7JmjohW-5ds-15" target="4Ke5hpOPJ7JmjohW-5ds-18" edge="1">
          <mxGeometry relative="1" as="geometry" />
        </mxCell>
        <mxCell id="4Ke5hpOPJ7JmjohW-5ds-15" value="是否为&lt;br style=&quot;font-size: 21px;&quot;&gt;过渡行为" style="rhombus;whiteSpace=wrap;html=1;fontFamily=Times New Roman;fontSize=21;" parent="1" vertex="1">
          <mxGeometry x="314" y="490" width="160" height="90" as="geometry" />
        </mxCell>
        <mxCell id="4Ke5hpOPJ7JmjohW-5ds-22" value="" style="edgeStyle=orthogonalEdgeStyle;rounded=0;orthogonalLoop=1;jettySize=auto;html=1;exitX=0.5;exitY=1;exitDx=0;exitDy=0;fontFamily=Times New Roman;fontSize=21;" parent="1" source="4Ke5hpOPJ7JmjohW-5ds-18" edge="1">
          <mxGeometry relative="1" as="geometry">
            <mxPoint x="294" y="767" as="targetPoint" />
            <Array as="points">
              <mxPoint x="394" y="720" />
              <mxPoint x="294" y="720" />
            </Array>
          </mxGeometry>
        </mxCell>
        <mxCell id="4Ke5hpOPJ7JmjohW-5ds-18" value="过渡行为识别" style="rounded=0;whiteSpace=wrap;html=1;fontFamily=Times New Roman;fontSize=21;" parent="1" vertex="1">
          <mxGeometry x="334" y="614" width="120" height="60" as="geometry" />
        </mxCell>
        <mxCell id="4Ke5hpOPJ7JmjohW-5ds-21" value="行为识别结果" style="strokeWidth=2;html=1;shape=mxgraph.flowchart.terminator;whiteSpace=wrap;fontFamily=Times New Roman;fontSize=21;" parent="1" vertex="1">
          <mxGeometry x="224" y="767" width="140" height="60" as="geometry" />
        </mxCell>
        <mxCell id="4Ke5hpOPJ7JmjohW-5ds-28" value="过渡态行为&lt;br style=&quot;font-size: 21px;&quot;&gt;识别流程" style="text;html=1;align=center;verticalAlign=middle;resizable=0;points=[];autosize=1;fontFamily=Times New Roman;fontSize=21;" parent="1" vertex="1">
          <mxGeometry x="438" y="359" width="120" height="50" as="geometry" />
        </mxCell>
        <mxCell id="4Ke5hpOPJ7JmjohW-5ds-29" value="" style="rounded=0;whiteSpace=wrap;html=1;dashed=1;fillColor=none;fontFamily=Times New Roman;fontSize=21;" parent="1" vertex="1">
          <mxGeometry x="314" y="353" width="240" height="340" as="geometry" />
        </mxCell>
        <mxCell id="4Ke5hpOPJ7JmjohW-5ds-30" value="是" style="text;html=1;align=center;verticalAlign=middle;resizable=0;points=[];autosize=1;fontFamily=Times New Roman;fontSize=21;" parent="1" vertex="1">
          <mxGeometry x="385" y="575" width="40" height="30" as="geometry" />
        </mxCell>
        <mxCell id="4Ke5hpOPJ7JmjohW-5ds-31" value="否" style="text;html=1;align=center;verticalAlign=middle;resizable=0;points=[];autosize=1;fontFamily=Times New Roman;fontSize=21;" parent="1" vertex="1">
          <mxGeometry x="465" y="502" width="40" height="30" as="geometry" />
        </mxCell>
        <mxCell id="4Ke5hpOPJ7JmjohW-5ds-34" value="静态、动态行为&lt;br style=&quot;font-size: 21px;&quot;&gt;识别流程" style="text;html=1;align=center;verticalAlign=middle;resizable=0;points=[];autosize=1;fontFamily=Times New Roman;fontSize=21;" parent="1" vertex="1">
          <mxGeometry x="25" y="365" width="160" height="50" as="geometry" />
        </mxCell>
        <mxCell id="ZPmKP0N2Nzvym9FSfNlo-1" value="" style="rounded=0;whiteSpace=wrap;html=1;dashed=1;fillColor=none;fontFamily=Times New Roman;fontSize=21;" parent="1" vertex="1">
          <mxGeometry x="11" y="353" width="240" height="340" as="geometry" />
        </mxCell>
      </root>
    </mxGraphModel>
  </diagram>
</mxfile>
